# xmcd
#
# Track frame offsets: 
#        150
#        14947
#        34200
#        49825
#        66385
#        81377
#        97382
#        112472
#        126495
#        136460
#        150782
#
# Disc length: 2156 seconds
#
# Revision: 4
# Processed by: cddbd v1.5.2PL0 Copyright (c) Steve Scherf et al.
# Submitted via: ExactAudioCopy v0.95b4
#
DISCID=ad086a0b
DTITLE=Chris LeDoux - Radio and Rodeo Hits
DYEAR=1990
DGENRE=Country
TTITLE0=Cowboy Songs
TTITLE1=Seventeen
TTITLE2=Hooked On An 8 Second Ride
TTITLE3=Running Through The Rain
TTITLE4=It Ain't The Years, It's The Miles
TTITLE5=Blue Bonnet Blues
TTITLE6=Wild And Wooly
TTITLE7=Hard Times
TTITLE8=Just Enough Money, Honey
TTITLE9=Son's Of The Pioneers
TTITLE10=So You Want To Be A Cowboy
EXTD=
EXTT0=
EXTT1=
EXTT2=
EXTT3=
EXTT4=
EXTT5=
EXTT6=
EXTT7=
EXTT8=
EXTT9=
EXTT10=
PLAYORDER=
